<?xml version="1.0" encoding="utf-8"?>
<?xml-stylesheet type="text/xsl" href="rss1.xsl"?>
<rss version="2.0" xmlns:atom="http://www.w3.org/2005/Atom" xmlns:content="http://purl.org/rss/1.0/modules/content/" xmlns:dc="http://purl.org/dc/elements/1.1/" xmlns:media="http://search.yahoo.com/mrss/">
<channel>
 <title>Getty</title>
 <link>http://www.gettyimg.com/</link>
 <atom:link href="http://www.gettyimg.com/" rel="self" type="application/rss+xml" />

 
                <item>
                <title><![CDATA[【Apple Music】WEB-RiP - Daddy Yankee - Gasolina (APPLE-1080p-AAC)]]></title>
                <link><![CDATA[https://sharemania.us/threads/daddy-yankee-gasolina-apple-1080p-aac.230034/]]></link>
                <description><![CDATA[<article>
<blockquote class="messageText SelectQuoteContainer ugc baseHtml">
<img src="https://i.ibb.co/mHS11mN/Gasolina-m4v-thumbs-2023-10-08-22-51-51.jpg" class="bbCodeImage LbImage" alt="[​IMG]" data-url="https://i.ibb.co/mHS11mN/Gasolina-m4v-thumbs-2023-10-08-22-51-51.jpg" style=""> <br>
<br>
<div class="ToggleTriggerAnchor bbCodeSpoilerContainer">
<button type="button" class="button bbCodeSpoilerButton ToggleTrigger Tooltip JsOnly" data-target="> .SpoilerTarget"><span>Spoiler: <span class="SpoilerTitle">Mediainfo</span></span></button>
<div class="SpoilerTarget bbCodeSpoilerText">
<div class="bbCodeBlock bbCodeCode">
<div class="type">Code:</div>
<pre>General
Complete name                  : E:\Users\PC-Center\Downloads\Gasolina.m4v
Format                         : MPEG-4
Codec ID                       : M4V  (isom/iso4/M4V /mp42)
File size                      : 208 MiB
Duration                       : 4 min 13 s
Overall bit rate mode          : Variable
Overall bit rate               : 6 884 kb/s
Movie name                     : Gasolina
Performer                      : Daddy Yankee
Genre                          : Latin
ContentType                    : Music Video
Recorded date                  : UTC 2017-11-17 08:00:00
Encoded date                   : UTC 2023-09-23 22:39:15
Tagged date                    : UTC 2023-09-23 22:39:15
Copyright                      : ℗ 2017 Gasolina Recording Co.
Cover                          : Yes
Rating                         : Explicit
GenreID                        : 1612
AppleStoreCountry              : United States
AlbumTitleID                   : 25514958
AppleStoreCatalogID            : 1588029356

Video
ID                             : 2
Format                         : AVC
Format/Info                    : Advanced Video Codec
Format profile                 : High@L4
Format settings, CABAC         : Yes
Format settings, RefFrames     : 5 frames
Codec ID                       : avc1
Codec ID/Info                  : Advanced Video Coding
Duration                       : 4 min 13 s
Duration_LastFrame             : -41 ms
Bit rate                       : 6 597 kb/s
Maximum bit rate               : 9 208 kb/s
Width                          : 1 440 pixels
Height                         : 1 072 pixels
Display aspect ratio           : 4:3
Frame rate mode                : Constant
Frame rate                     : 23.976 (23976/1000) FPS
Color space                    : YUV
Chroma subsampling             : 4:2:0
Bit depth                      : 8 bits
Scan type                      : Progressive
Bits/(Pixel*Frame)             : 0.178
Stream size                    : 200 MiB (96%)
Title                          : Core Media Video
Encoded date                   : UTC 2021-09-29 06:51:12
Tagged date                    : UTC 2023-09-23 22:39:15
Color range                    : Limited
Color primaries                : BT.709
Transfer characteristics       : BT.709
Matrix coefficients            : BT.709

Audio
ID                             : 1
Format                         : AAC
Format/Info                    : Advanced Audio Codec
Format profile                 : LC
Codec ID                       : 40
Duration                       : 4 min 13 s
Bit rate mode                  : Variable
Bit rate                       : 273 kb/s
Maximum bit rate               : 396 kb/s
Channel(s)                     : 2 channels
Channel positions              : Front: L R
Sampling rate                  : 48.0 kHz
Frame rate                     : 46.875 FPS (1024 SPF)
Compression mode               : Lossy
Stream size                    : 8.27 MiB (4%)
Title                          : Core Media Audio
Encoded date                   : UTC 2021-09-29 06:48:55
Tagged date                    : UTC 2023-09-23 22:39:15</pre>
</div></div>
</div><br>
Drive
<div class="bbCodeBlock bbCodeVfcHH HiddenContent">
<div class="attribution type">Hidden Content:</div>
<blockquote>You must reply before you can see the hidden data contained here.</blockquote>
</div>
<div class="messageTextEndMarker">&nbsp;</div>
</blockquote>
</article>]]></description>
                <author><![CDATA[mateospain]]></author>
                </item>

                
                <item>
                <title><![CDATA[【Requests】[REQ AUD] - Sugababes - One Touch [20th Anniversary] AMAZON UK EXCLUSIVE DISC]]></title>
                <link><![CDATA[https://sharemania.us/threads/sugababes-one-touch-20th-anniversary-amazon-uk-exclusive-disc.230033/]]></link>
                <description><![CDATA[<article>
<blockquote class="messageText SelectQuoteContainer ugc baseHtml">
Thanks for sharing this music video.
<div class="messageTextEndMarker">&nbsp;</div>
</blockquote>
</article>]]></description>
                <author><![CDATA[___wallpaper]]></author>
                </item>

                </channel></rss>